<svg viewBox="0 0 67 67" fill="none" xmlns="http://www.w3.org/2000/svg"><script/><g clip-path="url(#a)"><path d="M33.282 8.312A24.787 24.787 0 1 0 58.069 33.1 24.839 24.839 0 0 0 33.282 8.312Zm0 45.444A20.657 20.657 0 1 1 53.938 33.1a20.682 20.682 0 0 1-20.656 20.656Zm11.696-32.353a2.091 2.091 0 0 1 0 2.944L34.753 34.57a2.117 2.117 0 0 1-2.943 0 2.092 2.092 0 0 1 0-2.943l10.225-10.225a2.091 2.091 0 0 1 2.943 0ZM25.02 2.115A2.066 2.066 0 0 1 27.085.05h12.393a2.066 2.066 0 0 1 0 4.131H27.085a2.066 2.066 0 0 1-2.066-2.066Z" fill="#fff"/></g><defs><clipPath id="a"><path fill="#fff" transform="translate(.232 .05)" d="M0 0h66.1v66.1H0z"/></clipPath></defs></svg>