<svg viewBox="0 0 67 67" fill="none" xmlns="http://www.w3.org/2000/svg"><script/><path d="M19.507 27.185a3.094 3.094 0 1 0 6.187 0 3.094 3.094 0 0 0-6.187 0Zm22.687 0a3.094 3.094 0 1 0 6.188 0 3.094 3.094 0 0 0-6.188 0Zm-8.25-23.01C18 4.175 5.07 17.105 5.07 33.05c0 15.946 12.93 28.875 28.875 28.875 15.946 0 28.875-12.93 28.875-28.875 0-15.946-12.929-28.875-28.875-28.875ZM50.895 50a23.979 23.979 0 0 1-7.624 5.143 23.735 23.735 0 0 1-9.327 1.882 23.873 23.873 0 0 1-16.958-7.025 23.979 23.979 0 0 1-5.143-7.625 23.843 23.843 0 0 1-1.875-9.326c0-3.242.631-6.381 1.882-9.333a23.873 23.873 0 0 1 5.143-7.625 23.98 23.98 0 0 1 7.625-5.143 23.843 23.843 0 0 1 9.326-1.876 23.875 23.875 0 0 1 16.958 7.025 23.98 23.98 0 0 1 5.143 7.626 23.843 23.843 0 0 1 1.876 9.326c0 3.242-.632 6.38-1.882 9.333A23.777 23.777 0 0 1 50.895 50Zm-7.154-15.598h-3.1a.52.52 0 0 0-.522.477 6.198 6.198 0 0 1-6.175 5.71c-3.255 0-5.936-2.52-6.174-5.71a.52.52 0 0 0-.522-.477h-3.1a.515.515 0 0 0-.516.542c.283 5.433 4.802 9.77 10.312 9.77 5.511 0 10.03-4.337 10.313-9.77a.515.515 0 0 0-.516-.542Z" fill="#fff"/></svg>