<svg viewBox="0 0 68 67" fill="none" xmlns="http://www.w3.org/2000/svg"><script/><path d="M22.633 53.756a3.098 3.098 0 1 0 0-6.197 3.098 3.098 0 0 0 0 6.197ZM38.125 33.955l2.921-2.92 7.407 7.404-2.922 2.923-7.406-7.407ZM33.994 31.034a4.131 4.131 0 1 0 0-8.262 4.131 4.131 0 0 0 0 8.262Z" fill="#1592E8"/><path d="M33.994 12.444a14.459 14.459 0 1 0 0 28.918v-4.131a10.328 10.328 0 1 1 10.328-10.328h4.131a14.459 14.459 0 0 0-14.459-14.46Z" fill="#fff"/><path d="M54.65 4.181H13.338a4.131 4.131 0 0 0-4.131 4.131v49.575a4.131 4.131 0 0 0 4.131 4.131H54.65a4.131 4.131 0 0 0 4.132-4.13V8.311a4.131 4.131 0 0 0-4.132-4.13Zm0 53.706H13.338V8.312H54.65v49.575Z" fill="#fff"/></svg>