<svg viewBox="0 0 70 70" fill="none" xmlns="http://www.w3.org/2000/svg"><script/><path d="M57.12 54.342c4.487-5.13 7.21-11.842 7.21-19.177 0-7.335-2.723-14.046-7.21-19.177l1.072-1.072a1.964 1.964 0 0 0-2.778-2.778l-1.072 1.072C49.212 8.723 42.5 6 35.165 6c-7.335 0-14.046 2.723-19.177 7.21l-1.072-1.072a1.965 1.965 0 0 0-2.778 2.778l1.072 1.072C8.723 21.118 6 27.83 6 35.165c0 7.335 2.723 14.046 7.21 19.177l-1.072 1.072a1.964 1.964 0 0 0 2.777 2.778l1.073-1.072c5.13 4.487 11.842 7.21 19.177 7.21 7.335 0 14.046-2.723 19.177-7.21l1.072 1.072c.384.383.887.575 1.39.575a1.964 1.964 0 0 0 1.389-3.353l-1.073-1.072Zm3.282-19.177c0 .482-.015.96-.042 1.437H48.955a13.938 13.938 0 0 0 0-2.873H60.36c.027.475.042.954.042 1.436ZM40.53 10.504c9.618 2.09 17.207 9.679 19.297 19.297H47.95a13.944 13.944 0 0 0-7.42-7.42V10.504Zm4.572 24.661c0 5.48-4.457 9.937-9.936 9.937-5.48 0-9.936-4.458-9.936-9.937 0-5.479 4.457-9.936 9.936-9.936 5.48 0 9.937 4.457 9.937 9.936ZM33.73 9.97a25.412 25.412 0 0 1 2.872 0v11.405a13.937 13.937 0 0 0-2.872 0V9.97Zm-3.928.534V22.38a13.944 13.944 0 0 0-7.42 7.42H10.504c2.09-9.618 9.679-17.207 19.297-19.297ZM9.928 35.165c0-.482.015-.96.042-1.436h11.405a13.938 13.938 0 0 0 0 2.873H9.97a25.425 25.425 0 0 1-.042-1.437ZM29.8 59.826c-9.618-2.09-17.207-9.679-19.297-19.297H22.38a13.944 13.944 0 0 0 7.42 7.42v11.877Zm6.8.534c-.475.027-.954.042-1.436.042s-.96-.015-1.436-.042V48.955a13.938 13.938 0 0 0 2.872 0V60.36Zm3.928-.534V47.95a13.947 13.947 0 0 0 7.42-7.42h11.877c-2.09 9.618-9.679 17.207-19.297 19.297Z" fill="#FFF"/></svg>